<svg width="22" height="27" viewBox="0 0 22 27" fill="none" xmlns="http://www.w3.org/2000/svg">
<path d="M8.33337 23.3332L2.26671 26.3665C1.82226 26.5887 1.38893 26.5718 0.966707 26.3158C0.544485 26.0598 0.333374 25.6772 0.333374 25.1678V8.6665C0.333374 7.93317 0.594707 7.30561 1.11737 6.78384C1.64004 6.26206 2.2676 6.00073 3.00004 5.99984H13.6667C14.4 5.99984 15.028 6.26117 15.5507 6.78384C16.0734 7.3065 16.3343 7.93406 16.3334 8.6665V25.1665C16.3334 25.6776 16.1223 26.0612 15.7 26.3172C15.2778 26.5732 14.8445 26.5896 14.4 26.3665L8.33337 23.3332ZM3.00004 23.2998L7.06671 21.0998C7.46671 20.8776 7.88893 20.7665 8.33337 20.7665C8.77782 20.7665 9.20004 20.8776 9.60004 21.0998L13.6667 23.2998V8.6665H3.00004V23.2998ZM20.3334 21.9998C19.9556 21.9998 19.6392 21.8718 19.384 21.6158C19.1289 21.3598 19.0009 21.0434 19 20.6665V3.33317H5.66671C5.28893 3.33317 4.97249 3.20517 4.71737 2.94917C4.46226 2.69317 4.33426 2.37673 4.33337 1.99984C4.33249 1.62295 4.46049 1.3065 4.71737 1.0505C4.97426 0.794504 5.29071 0.666504 5.66671 0.666504H19C19.7334 0.666504 20.3614 0.927837 20.884 1.4505C21.4067 1.97317 21.6676 2.60073 21.6667 3.33317V20.6665C21.6667 21.0443 21.5387 21.3612 21.2827 21.6172C21.0267 21.8732 20.7103 22.0007 20.3334 21.9998Z" fill="#999999"/>
</svg>
