<svg width="32" height="32" viewBox="0 0 32 32" fill="none" xmlns="http://www.w3.org/2000/svg">
<path d="M13.3333 25.3333L7.26659 28.3666C6.82214 28.5888 6.38881 28.572 5.96659 28.316C5.54436 28.06 5.33325 27.6773 5.33325 27.168V10.6666C5.33325 9.93329 5.59459 9.30574 6.11725 8.78396C6.63992 8.26218 7.26747 8.00085 7.99992 7.99996H18.6666C19.3999 7.99996 20.0279 8.26129 20.5506 8.78396C21.0733 9.30663 21.3341 9.93418 21.3333 10.6666V27.1666C21.3333 27.6777 21.1221 28.0613 20.6999 28.3173C20.2777 28.5733 19.8444 28.5897 19.3999 28.3666L13.3333 25.3333ZM7.99992 25.3L12.0666 23.1C12.4666 22.8777 12.8888 22.7666 13.3333 22.7666C13.7777 22.7666 14.1999 22.8777 14.5999 23.1L18.6666 25.3V10.6666H7.99992V25.3ZM25.3333 24C24.9555 24 24.639 23.872 24.3839 23.616C24.1288 23.36 24.0008 23.0435 23.9999 22.6666V5.33329H10.6666C10.2888 5.33329 9.97236 5.20529 9.71725 4.94929C9.46214 4.69329 9.33414 4.37685 9.33325 3.99996C9.33236 3.62307 9.46036 3.30663 9.71725 3.05063C9.97414 2.79463 10.2906 2.66663 10.6666 2.66663H23.9999C24.7333 2.66663 25.3613 2.92796 25.8839 3.45063C26.4066 3.97329 26.6675 4.60085 26.6666 5.33329V22.6666C26.6666 23.0444 26.5386 23.3613 26.2826 23.6173C26.0266 23.8733 25.7101 24.0008 25.3333 24Z" fill="#999999"/>
</svg>
