<svg width="22" height="27" viewBox="0 0 22 27" fill="none" xmlns="http://www.w3.org/2000/svg">
<path d="M8.33325 23.3332L2.26659 26.3665C1.82214 26.5887 1.38881 26.5718 0.966585 26.3158C0.544363 26.0598 0.333252 25.6772 0.333252 25.1678V8.6665C0.333252 7.93317 0.594585 7.30561 1.11725 6.78384C1.63992 6.26206 2.26747 6.00073 2.99992 5.99984H13.6666C14.3999 5.99984 15.0279 6.26117 15.5506 6.78384C16.0733 7.3065 16.3341 7.93406 16.3333 8.6665V25.1665C16.3333 25.6776 16.1221 26.0612 15.6999 26.3172C15.2777 26.5732 14.8444 26.5896 14.3999 26.3665L8.33325 23.3332ZM2.99992 23.2998L7.06659 21.0998C7.46659 20.8776 7.88881 20.7665 8.33325 20.7665C8.7777 20.7665 9.19992 20.8776 9.59992 21.0998L13.6666 23.2998V8.6665H2.99992V23.2998ZM20.3333 21.9998C19.9555 21.9998 19.639 21.8718 19.3839 21.6158C19.1288 21.3598 19.0008 21.0434 18.9999 20.6665V3.33317H5.66659C5.28881 3.33317 4.97236 3.20517 4.71725 2.94917C4.46214 2.69317 4.33414 2.37673 4.33325 1.99984C4.33236 1.62295 4.46036 1.3065 4.71725 1.0505C4.97414 0.794504 5.29059 0.666504 5.66659 0.666504H18.9999C19.7333 0.666504 20.3613 0.927837 20.8839 1.4505C21.4066 1.97317 21.6675 2.60073 21.6666 3.33317V20.6665C21.6666 21.0443 21.5386 21.3612 21.2826 21.6172C21.0266 21.8732 20.7101 22.0007 20.3333 21.9998Z" fill="url(#paint0_linear_1891_1896)"/>
<defs>
<linearGradient id="paint0_linear_1891_1896" x1="10.9999" y1="0.666504" x2="10.9999" y2="26.5224" gradientUnits="userSpaceOnUse">
<stop stop-color="#8761D2"/>
<stop offset="1" stop-color="#B37DDF"/>
</linearGradient>
</defs>
</svg>
