<svg width="12" height="12" viewBox="0 0 12 12" fill="none" xmlns="http://www.w3.org/2000/svg">
<path d="M6 7.7875C5.93333 7.7875 5.87083 7.77717 5.8125 7.7565C5.75417 7.73584 5.7 7.70034 5.65 7.65L3.85 5.85C3.75 5.75 3.702 5.63334 3.706 5.5C3.71 5.36667 3.758 5.25 3.85 5.15C3.95 5.05 4.06883 4.998 4.2065 4.994C4.34417 4.99 4.46283 5.03783 4.5625 5.1375L5.5 6.075V2.5C5.5 2.35834 5.548 2.23967 5.644 2.144C5.74 2.04834 5.85867 2.00034 6 2C6.14133 1.99967 6.26017 2.04767 6.3565 2.144C6.45283 2.24034 6.50067 2.359 6.5 2.5V6.075L7.4375 5.1375C7.5375 5.0375 7.65633 4.9895 7.794 4.9935C7.93167 4.9975 8.05033 5.04967 8.15 5.15C8.24167 5.25 8.28967 5.36667 8.294 5.5C8.29833 5.63334 8.25033 5.75 8.15 5.85L6.35 7.65C6.3 7.7 6.24583 7.7355 6.1875 7.7565C6.12917 7.7775 6.06667 7.78784 6 7.7875ZM3 10C2.725 10 2.48967 9.90217 2.294 9.7065C2.09833 9.51084 2.00033 9.27534 2 9V8C2 7.85834 2.048 7.73967 2.144 7.644C2.24 7.54834 2.35867 7.50034 2.5 7.5C2.64133 7.49967 2.76017 7.54767 2.8565 7.644C2.95283 7.74034 3.00067 7.859 3 8V9H9V8C9 7.85834 9.048 7.73967 9.144 7.644C9.24 7.54834 9.35867 7.50034 9.5 7.5C9.64133 7.49967 9.76017 7.54767 9.8565 7.644C9.95283 7.74034 10.0007 7.859 10 8V9C10 9.275 9.90217 9.5105 9.7065 9.7065C9.51083 9.9025 9.27533 10.0003 9 10H3Z" fill="black"/>
</svg>
