<svg width="32" height="32" viewBox="0 0 32 32" fill="none" xmlns="http://www.w3.org/2000/svg">
<path d="M19 25.9998V19.9998C19 19.7346 18.8946 19.4802 18.7071 19.2927C18.5196 19.1051 18.2652 18.9998 18 18.9998H14C13.7348 18.9998 13.4804 19.1051 13.2929 19.2927C13.1054 19.4802 13 19.7346 13 19.9998V25.9998C13 26.265 12.8946 26.5193 12.7071 26.7069C12.5196 26.8944 12.2652 26.9998 12 26.9998H6C5.73478 26.9998 5.48043 26.8944 5.29289 26.7069C5.10536 26.5193 5 26.265 5 25.9998V14.4373C5.00224 14.2989 5.03215 14.1623 5.08796 14.0357C5.14378 13.909 5.22437 13.7948 5.325 13.6998L15.325 4.61228C15.5093 4.44363 15.7501 4.3501 16 4.3501C16.2499 4.3501 16.4907 4.44363 16.675 4.61228L26.675 13.6998C26.7756 13.7948 26.8562 13.909 26.912 14.0357C26.9679 14.1623 26.9978 14.2989 27 14.4373V25.9998C27 26.265 26.8946 26.5193 26.7071 26.7069C26.5196 26.8944 26.2652 26.9998 26 26.9998H20C19.7348 26.9998 19.4804 26.8944 19.2929 26.7069C19.1054 26.5193 19 26.265 19 25.9998Z" stroke="#999999" stroke-width="2" stroke-linecap="round" stroke-linejoin="round"/>
</svg>
