<svg width="32" height="32" viewBox="0 0 32 32" fill="none" xmlns="http://www.w3.org/2000/svg">
<g id="&#235;&#146;&#164;&#235;&#161;&#156;&#234;&#176;&#128;&#234;&#184;&#176; &#235;&#178;&#132;&#237;&#138;&#188;">
<path id="Vector" d="M14.4001 16L19.6001 21.2C19.8445 21.4444 19.9668 21.7555 19.9668 22.1333C19.9668 22.5111 19.8445 22.8222 19.6001 23.0666C19.3556 23.3111 19.0445 23.4333 18.6668 23.4333C18.289 23.4333 17.9779 23.3111 17.7334 23.0666L11.6001 16.9333C11.4668 16.8 11.3725 16.6555 11.3174 16.5C11.2623 16.3444 11.2343 16.1778 11.2334 16C11.2325 15.8222 11.2605 15.6555 11.3174 15.5C11.3743 15.3444 11.4685 15.2 11.6001 15.0667L17.7334 8.93332C17.9779 8.68887 18.289 8.56665 18.6668 8.56665C19.0445 8.56665 19.3556 8.68887 19.6001 8.93332C19.8445 9.17776 19.9668 9.48887 19.9668 9.86665C19.9668 10.2444 19.8445 10.5555 19.6001 10.8L14.4001 16Z" fill="#999999"/>
</g>
</svg>
