<svg width="24" height="24" viewBox="0 0 24 24" fill="none" xmlns="http://www.w3.org/2000/svg">
<path d="M13.2001 11.9998L9.30006 15.8998C9.11673 16.0831 9.02506 16.3165 9.02506 16.5998C9.02506 16.8831 9.11673 17.1165 9.30006 17.2998C9.48339 17.4831 9.71672 17.5748 10.0001 17.5748C10.2834 17.5748 10.5167 17.4831 10.7001 17.2998L15.3001 12.6998C15.4001 12.5998 15.4707 12.4915 15.5121 12.3748C15.5534 12.2581 15.5744 12.1331 15.5751 11.9998C15.5757 11.8665 15.5547 11.7415 15.5121 11.6248C15.4694 11.5081 15.3987 11.3998 15.3001 11.2998L10.7001 6.6998C10.5167 6.51647 10.2834 6.4248 10.0001 6.4248C9.71672 6.4248 9.48339 6.51647 9.30006 6.6998C9.11673 6.88314 9.02506 7.11647 9.02506 7.3998C9.02506 7.68314 9.11673 7.91647 9.30006 8.0998L13.2001 11.9998Z" fill="#999999"/>
</svg>
