<svg width="12" height="12" viewBox="0 0 12 12" fill="none" xmlns="http://www.w3.org/2000/svg">
<path d="M8.35365 0.758809C8.66775 0.444624 9.0896 0.261667 9.53363 0.247043C9.97766 0.232419 10.4106 0.387223 10.7447 0.680059L10.8287 0.758809L11.2411 1.17123C11.5552 1.48531 11.738 1.90703 11.7526 2.35092C11.7673 2.79481 11.6126 3.22766 11.3199 3.56173L11.2411 3.64573L4.70081 10.1866C4.60834 10.2791 4.49632 10.3497 4.37298 10.3931L4.27848 10.4206L1.68031 11.0202C1.58928 11.0414 1.49449 11.0404 1.40392 11.0173C1.31336 10.9942 1.22968 10.9496 1.15992 10.8874C1.09017 10.8252 1.03638 10.7471 1.00309 10.6598C0.969806 10.5725 0.957992 10.4784 0.968646 10.3856L0.980313 10.3196L1.5794 7.72089C1.60899 7.59343 1.6668 7.47423 1.74856 7.37206L1.81331 7.29914L8.35365 0.758809ZM7.94123 2.82089L2.69706 8.06506L2.32606 9.67389L3.9349 9.30231L9.17906 4.05814L7.94123 2.82089ZM10.0039 1.58364C9.90345 1.48321 9.76981 1.42287 9.62804 1.41396C9.48628 1.40504 9.34613 1.44816 9.2339 1.53523L9.17906 1.58364L8.76606 1.99606L10.0039 3.23331L10.4163 2.82089C10.5167 2.72045 10.5771 2.58681 10.586 2.44504C10.5949 2.30327 10.5518 2.16313 10.4647 2.05089L10.4163 1.99606L10.0039 1.58364Z" fill="#999999"/>
</svg>
