<svg width="30" height="30" viewBox="0 0 30 30" fill="none" xmlns="http://www.w3.org/2000/svg">
<path d="M20.3334 12.3333C21.8062 12.3333 23.0001 11.1394 23.0001 9.66667C23.0001 8.19391 21.8062 7 20.3334 7C18.8607 7 17.6667 8.19391 17.6667 9.66667C17.6667 11.1394 18.8607 12.3333 20.3334 12.3333Z" stroke="black" stroke-width="1.5"/>
<path d="M1.66675 15.6667L4.00275 13.6227C4.58826 13.1108 5.34641 12.8405 6.12371 12.8665C6.90101 12.8925 7.6394 13.2128 8.18942 13.7627L13.9094 19.4827C14.3533 19.9265 14.9395 20.1995 15.5648 20.2536C16.1901 20.3077 16.8145 20.1396 17.3281 19.7787L17.7267 19.4987C18.4675 18.9784 19.3629 18.7248 20.2665 18.7793C21.1701 18.8338 22.0285 19.1931 22.7014 19.7987L27.0001 23.6667" stroke="black" stroke-width="1.5" stroke-linecap="round"/>
<path d="M28.3334 14.9998C28.3334 21.2852 28.3334 24.4278 26.3801 26.3798C24.4294 28.3332 21.2854 28.3332 15.0001 28.3332C8.71475 28.3332 5.57208 28.3332 3.61875 26.3798C1.66675 24.4292 1.66675 21.2852 1.66675 14.9998C1.66675 8.7145 1.66675 5.57184 3.61875 3.6185C5.57341 1.6665 8.71475 1.6665 15.0001 1.6665C21.2854 1.6665 24.4281 1.6665 26.3801 3.6185C27.6787 4.91717 28.1134 6.7425 28.2601 9.6665" stroke="black" stroke-width="1.5" stroke-linecap="round"/>
</svg>
