<svg width="21" height="24" viewBox="0 0 21 24" fill="none" xmlns="http://www.w3.org/2000/svg">
<path fill-rule="evenodd" clip-rule="evenodd" d="M17.9896 3.01137L3.29889 8.3232L8.19306 11.1559L12.5086 6.8392C12.7275 6.62044 13.0243 6.4976 13.3338 6.49771C13.6433 6.49782 13.94 6.62087 14.1588 6.83978C14.3776 7.0587 14.5004 7.35555 14.5003 7.66503C14.5002 7.97451 14.3771 8.27127 14.1582 8.49003L9.84156 12.8067L12.6766 17.6997L17.9896 3.01137ZM18.3664 0.393365C19.7606 -0.111802 21.1116 1.2392 20.6064 2.63336L14.4441 19.6725C13.9377 21.0702 12.0291 21.2405 11.2836 19.9537L7.53039 13.4694L1.04606 9.7162C-0.240776 8.9707 -0.070442 7.06203 1.32722 6.5557L18.3664 0.393365Z" fill="#999999"/>
</svg>
