<svg width="192" height="192" viewBox="0 0 192 192" fill="none" xmlns="http://www.w3.org/2000/svg">
<rect width="192" height="192" fill="white"/>
<path d="M94.1002 139.656C94.1002 139.656 88.864 143.879 89.3801 151.179C89.8962 158.48 78.645 158.79 78.645 158.79C78.645 158.79 66.4459 158.058 62.5891 151.911C58.7323 145.765 62.5891 141.176 62.5891 141.176C62.5891 141.176 67.3843 136.841 74.7882 135.668C74.7882 135.668 75.2855 135.621 77.4907 134.176" fill="#08DAD4"/>
<mask id="mask0_1642_3052" style="mask-type:luminance" maskUnits="userSpaceOnUse" x="60" y="134" width="35" height="25">
<path d="M94.0924 139.654C94.0924 139.654 88.8562 143.877 89.3723 151.177C89.8884 158.478 78.6371 158.788 78.6371 158.788C78.6371 158.788 66.4381 158.056 62.5813 151.909C58.7245 145.763 62.5813 141.174 62.5813 141.174C62.5813 141.174 67.3765 136.839 74.7804 135.666C74.7804 135.666 75.2777 135.619 77.4829 134.174" fill="white"/>
</mask>
<g mask="url(#mask0_1642_3052)">
<path d="M73.1511 134.673C74.8778 136.043 76.595 137.423 78.6219 138.305C80.7708 139.252 83.0605 139.768 85.3596 140.238C90.1078 141.185 94.9593 141.683 99.8014 141.72C102.823 141.739 102.823 137.047 99.8014 137.028C95.5223 137 91.2526 136.616 87.0487 135.799C85.0874 135.414 83.0793 135.02 81.2025 134.326C79.4383 133.669 77.9275 132.515 76.4636 131.351C75.4689 130.563 74.1177 130.385 73.1417 131.351C72.3253 132.168 72.147 133.875 73.1417 134.673H73.1511Z" fill="#006A65"/>
<path d="M94.5681 141.345C91.0961 142.518 88.7407 145.126 86.6669 148.045C84.9027 150.531 83.2605 153.628 80.3703 154.979C78.822 155.702 77.0203 155.711 75.3499 155.777C73.2761 155.852 71.1929 155.805 69.119 155.655C65.0276 155.345 61.002 154.529 57.0889 153.318C54.1986 152.427 52.96 156.95 55.8408 157.841C60.0167 159.136 64.3239 159.953 68.678 160.319C70.7518 160.488 72.8257 160.553 74.9089 160.488C76.9921 160.422 79.1879 160.375 81.1679 159.699C84.7901 158.461 87.1924 155.533 89.3038 152.493C91.021 150.015 92.7946 146.909 95.8162 145.886C98.6595 144.92 97.4396 140.387 94.5681 141.363V141.345Z" fill="#006A65"/>
</g>
<path d="M94.1002 139.656C94.1002 139.656 88.864 143.879 89.3801 151.179C89.8962 158.48 78.645 158.79 78.645 158.79C78.645 158.79 66.4459 158.058 62.5891 151.911C58.7323 145.765 62.5891 141.176 62.5891 141.176C62.5891 141.176 67.3843 136.841 74.7882 135.668C74.7882 135.668 75.2855 135.621 77.4907 134.176" stroke="#231815" stroke-width="2" stroke-miterlimit="10"/>
<path d="M109.828 141.168C109.828 141.168 114.623 142.313 113.582 149.408C113.582 149.408 112.662 157.562 113.929 160.302C114.013 160.481 114.107 160.64 114.21 160.771C115.881 162.855 133.917 158.585 133.917 158.585C133.917 158.585 144.342 155.976 142.362 149.511C142.362 149.511 139.95 145.138 132.453 141.168C132.453 141.168 126.438 137.772 128.765 135.66L109.828 141.168Z" fill="#08DAD4"/>
<mask id="mask1_1642_3052" style="mask-type:luminance" maskUnits="userSpaceOnUse" x="109" y="135" width="34" height="27">
<path d="M109.836 141.168C109.836 141.168 114.631 142.313 113.589 149.408C113.589 149.408 112.67 157.562 113.937 160.302C114.021 160.481 114.115 160.64 114.218 160.771C115.889 162.855 133.924 158.585 133.924 158.585C133.924 158.585 144.35 155.976 142.37 149.511C142.37 149.511 139.958 145.138 132.46 141.168C132.46 141.168 126.445 137.772 128.773 135.66L109.836 141.168Z" fill="white"/>
</mask>
<g mask="url(#mask1_1642_3052)">
<path d="M108.992 148.337L110.541 146.836C110.766 146.62 110.935 146.376 111.028 146.085C111.179 145.804 111.244 145.503 111.235 145.184C111.244 144.865 111.179 144.556 111.028 144.283C110.935 143.992 110.775 143.739 110.541 143.533L110.062 143.167C109.696 142.951 109.302 142.848 108.88 142.848L108.26 142.932C107.866 143.045 107.519 143.242 107.228 143.533L105.68 145.034C105.454 145.25 105.286 145.494 105.192 145.785C105.042 146.066 104.976 146.367 104.985 146.686C104.976 147.005 105.042 147.314 105.192 147.587C105.286 147.877 105.445 148.131 105.68 148.337L106.158 148.703C106.524 148.919 106.918 149.022 107.341 149.022L107.96 148.938C108.354 148.825 108.701 148.628 108.992 148.337Z" fill="#006A65"/>
<path d="M110.162 142.68C114.573 143.543 119.331 141.948 123.469 140.456C127.607 138.964 131.098 136.693 134.654 134.3C135.705 133.596 136.165 132.235 135.499 131.091C134.889 130.049 133.341 129.533 132.29 130.246C129.231 132.311 126.115 134.478 122.634 135.783C120.747 136.486 118.805 137.031 116.863 137.556C115.098 138.035 113.25 138.513 111.42 138.157C110.181 137.913 108.886 138.513 108.53 139.799C108.211 140.953 108.914 142.436 110.172 142.689L110.162 142.68Z" fill="#006A65"/>
<path d="M130.032 140.062C132.237 141.573 134.245 143.844 135.822 145.993C137.483 148.245 137.82 151.144 137.727 153.885C137.548 158.792 134.902 163.86 130.06 165.549C128.868 165.971 128.071 167.153 128.418 168.439C128.737 169.603 130.097 170.494 131.308 170.081C138.064 167.716 142.006 161.279 142.4 154.297C142.597 150.76 142.062 146.753 139.988 143.787C137.914 140.822 135.334 138.026 132.406 136.018C131.364 135.304 129.807 135.821 129.197 136.862C128.521 138.026 128.99 139.358 130.041 140.071L130.032 140.062Z" fill="#006A65"/>
<path d="M137.192 146.619C137.399 148.327 137.699 150.185 137.286 151.884C136.939 153.338 136.066 154.643 135.1 155.769C133.082 158.115 130.455 159.879 127.602 161.08C120.921 163.886 113.47 163.651 106.376 163.492C103.354 163.426 103.354 168.118 106.376 168.184C114.605 168.362 123.032 168.381 130.642 164.824C133.899 163.304 136.883 161.08 139.107 158.237C140.298 156.716 141.349 155.027 141.809 153.132C142.325 150.974 142.138 148.796 141.884 146.619C141.734 145.362 140.918 144.273 139.538 144.273C138.384 144.273 137.042 145.353 137.192 146.619Z" fill="#006A65"/>
</g>
<path d="M109.828 141.168C109.828 141.168 114.623 142.313 113.582 149.408C113.582 149.408 112.662 157.562 113.929 160.302C114.013 160.481 114.107 160.64 114.21 160.771C115.881 162.855 133.917 158.585 133.917 158.585C133.917 158.585 144.342 155.976 142.362 149.511C142.362 149.511 139.95 145.138 132.453 141.168C132.453 141.168 126.438 137.772 128.765 135.66L109.828 141.168Z" stroke="#231815" stroke-width="2" stroke-miterlimit="10"/>
<path d="M134.652 110.082C134.652 110.082 136.951 104.161 145.124 108.121C145.124 108.121 156.835 116.463 160.589 114.999C160.589 114.999 163.404 114.792 164.136 111.977C164.868 109.162 161.733 103.222 160.072 101.345C158.412 99.4686 151.937 94.8798 145.584 95.9214C139.231 96.9631 138.18 96.1279 129.734 101.758" fill="#00DAD4"/>
<mask id="mask2_1642_3052" style="mask-type:luminance" maskUnits="userSpaceOnUse" x="129" y="95" width="36" height="21">
<path d="M134.644 110.086C134.644 110.086 136.943 104.164 145.116 108.124C145.116 108.124 156.827 116.467 160.581 115.003C160.581 115.003 163.396 114.796 164.128 111.981C164.86 109.166 161.726 103.226 160.065 101.349C158.404 99.4725 151.929 94.8837 145.576 95.9254C139.223 96.967 138.172 96.1318 129.727 101.762" fill="white"/>
</mask>
<g mask="url(#mask2_1642_3052)">
<path d="M136.207 111.859C137.605 111.221 139.106 110.78 140.617 110.527C142.128 110.273 143.216 110.414 144.614 110.986C147.664 112.244 150.752 113.398 153.905 114.365C157.058 115.331 159.891 116.148 163.044 115.688C166 115.256 168.75 113.802 170.796 111.634C172.841 109.466 169.557 106.107 167.474 108.312C165.766 110.123 163.457 111.193 160.952 111.155C158.033 111.108 154.946 109.813 152.215 108.884C150.686 108.359 149.175 107.805 147.683 107.205C146.191 106.604 144.699 105.863 143.038 105.703C139.932 105.403 136.61 106.529 133.832 107.796C132.678 108.321 132.397 109.992 132.988 111.005C133.682 112.188 135.043 112.375 136.197 111.85L136.207 111.859Z" fill="#006A65"/>
</g>
<path d="M134.652 110.082C134.652 110.082 136.951 104.161 145.124 108.121C145.124 108.121 156.835 116.463 160.589 114.999C160.589 114.999 163.404 114.792 164.136 111.977C164.868 109.162 161.733 103.222 160.072 101.345C158.412 99.4686 151.937 94.8798 145.584 95.9214C139.231 96.9631 138.18 96.1279 129.734 101.758" stroke="#231815" stroke-width="2" stroke-miterlimit="10"/>
<path d="M71.0391 127.41C74.0607 132.102 78.1333 134.607 78.1333 134.607C86.7852 140.547 109.832 141.176 109.832 141.176C117.649 140.866 131.209 134.607 131.209 134.607C139.129 131.998 137.468 121.366 137.468 121.366C136.839 110.209 129.754 101.763 129.754 101.763C122.979 94.6692 115.781 91.3848 115.781 91.3848L100.092 88.0254C100.092 88.0254 95.1369 88.5321 91.5429 90.4464C88.8403 91.8822 87.611 92.4358 80.8077 98.2445L71.0484 127.41" fill="#E8840E"/>
<mask id="mask3_1642_3052" style="mask-type:luminance" maskUnits="userSpaceOnUse" x="71" y="88" width="67" height="54">
<path d="M71.0391 127.41C74.0607 132.102 78.1333 134.607 78.1333 134.607C86.7852 140.547 109.832 141.176 109.832 141.176C117.649 140.866 131.209 134.607 131.209 134.607C139.129 131.998 137.468 121.366 137.468 121.366C136.839 110.209 129.754 101.763 129.754 101.763C122.979 94.6692 115.781 91.3848 115.781 91.3848L100.092 88.0254C100.092 88.0254 95.1369 88.5321 91.5429 90.4464C88.8403 91.8822 87.611 92.4358 80.8077 98.2445L71.0484 127.41" fill="white"/>
</mask>
<g mask="url(#mask3_1642_3052)">
<path d="M131.456 102.205C133.07 111.43 134.299 120.607 131.681 129.775C130.508 133.904 128.707 137.826 126.333 141.402C124.362 144.358 121.753 147.238 118.375 148.571C117.193 149.04 116.376 150.138 116.733 151.461C117.042 152.587 118.431 153.563 119.623 153.103C126.314 150.466 130.696 144.301 133.605 137.958C136.88 130.835 138.335 123.075 137.903 115.249C137.631 110.444 136.805 105.687 135.979 100.957C135.763 99.709 134.234 99.0053 133.089 99.3149C131.766 99.6809 131.231 100.948 131.447 102.205H131.456Z" fill="#C97700"/>
<path d="M79.1972 139.628C83.495 141.016 87.9711 141.673 92.4473 142.143C96.9234 142.612 101.324 142.846 105.754 142.452C110.183 142.058 114.64 140.96 119.004 139.787C122.964 138.727 126.905 137.62 130.668 135.949C135.041 134.007 138.672 131.051 141.882 127.532C143.918 125.308 140.605 121.977 138.56 124.21C135.979 127.034 133.201 129.465 129.767 131.201C126.332 132.937 122.635 133.941 118.957 134.936C115.062 135.987 111.121 137.132 107.105 137.62C102.845 138.136 98.5186 138.004 94.249 137.62C89.5758 137.207 84.9214 136.54 80.4453 135.095C77.5644 134.166 76.3351 138.699 79.1972 139.618V139.628Z" fill="#C97700"/>
<path d="M134.46 124.295C132.696 126.5 131.561 129.052 129.956 131.361C129.881 131.464 129.806 131.567 129.731 131.68C129.6 131.858 129.487 131.989 129.684 131.745C129.478 131.989 129.281 132.243 129.055 132.477C128.858 132.684 128.652 132.89 128.445 133.078C128.323 133.181 128.201 133.284 128.089 133.388C128.333 133.181 128.22 133.294 128.033 133.425C127.789 133.594 127.535 133.754 127.272 133.894C127.122 133.979 126.963 134.054 126.813 134.129C126.644 134.213 126.39 134.298 126.709 134.176C126.062 134.429 125.396 134.636 124.739 134.833L126.55 139.121C128.53 138.258 130.36 137.104 132.096 135.809C134.001 134.382 136.009 132.928 137.454 131.014C138.195 130.028 138.664 128.874 138.833 127.654C138.927 126.978 138.965 126.228 138.758 125.571C138.355 124.238 136.91 123.535 135.596 123.844C134.16 124.182 133.334 125.411 132.518 126.528C131.861 127.429 131.261 128.358 130.632 129.278C130.472 129.512 130.303 129.747 130.135 129.981C130.05 130.094 129.966 130.216 129.881 130.329C129.618 130.685 130.022 130.16 129.844 130.375C129.496 130.788 129.159 131.201 128.783 131.586C128.586 131.783 128.38 131.98 128.164 132.168C128.07 132.252 127.967 132.327 127.873 132.412C127.62 132.637 128.314 132.121 127.826 132.44C127.62 132.581 127.413 132.721 127.197 132.843C127.094 132.909 126.982 132.965 126.869 133.022C126.756 133.078 126.231 133.303 126.747 133.097L128.558 137.385C132.743 134.213 136.853 130.892 138.796 125.852C139.237 124.708 138.308 123.225 137.154 122.962C135.812 122.653 134.742 123.375 134.263 124.604C134.216 124.717 134.17 124.839 134.123 124.952C134.32 124.464 134.141 124.886 134.095 124.989C133.973 125.242 133.851 125.486 133.719 125.73C133.466 126.19 133.194 126.631 132.893 127.063C132.809 127.185 132.33 127.814 132.659 127.401C132.48 127.617 132.312 127.832 132.124 128.048C131.758 128.471 131.373 128.883 130.979 129.278C130.2 130.056 129.374 130.788 128.52 131.492C128.108 131.83 127.685 132.168 127.263 132.496C127.085 132.637 126.963 132.731 127.216 132.534C127.113 132.609 127.019 132.684 126.916 132.768C126.662 132.956 126.418 133.144 126.165 133.341C125.227 134.054 124.711 135.105 125.208 136.269C125.621 137.244 126.888 138.07 127.976 137.629C130.369 136.663 132.133 135.039 133.682 133.012C134.367 132.111 134.986 131.173 135.615 130.235C135.953 129.728 136.318 129.24 136.666 128.743C136.872 128.442 136.459 128.987 136.694 128.705C136.788 128.593 136.872 128.48 136.966 128.367C137.06 128.255 137.257 128.161 137.041 128.236C136.966 128.264 136.45 128.433 136.816 128.386H135.568L135.286 128.236L134.207 126.838C134.151 126.519 134.188 126.622 134.188 126.885C134.188 126.95 134.188 127.016 134.188 127.072C134.179 127.251 134.188 127.204 134.216 126.922C134.245 126.988 134.151 127.222 134.132 127.298C134.113 127.354 133.954 127.87 134.057 127.57C134.16 127.269 133.935 127.804 133.926 127.823C133.86 127.936 133.794 128.048 133.729 128.161C133.7 128.208 133.381 128.649 133.56 128.414C133.719 128.208 133.447 128.536 133.419 128.574C132.556 129.559 131.495 130.366 130.472 131.173C130.36 131.258 130.256 131.342 130.144 131.436C129.937 131.605 130.388 131.258 130.041 131.52C129.787 131.708 129.534 131.896 129.281 132.083C128.746 132.468 128.201 132.853 127.648 133.209C126.531 133.923 125.377 134.561 124.166 135.086C123.097 135.546 122.796 137.047 123.209 138.014C123.65 139.065 124.851 139.703 125.977 139.375C127.413 138.952 128.896 138.474 130.163 137.657C131.523 136.785 132.584 135.659 133.55 134.382C134.357 133.313 135.033 132.158 135.69 130.995C136.037 130.375 136.384 129.765 136.76 129.165C136.947 128.865 137.135 128.564 137.332 128.273C137.435 128.123 137.538 127.983 137.632 127.842C137.914 127.429 137.445 128.067 137.782 127.645C138.552 126.688 138.786 125.252 137.782 124.323C136.928 123.544 135.286 123.3 134.46 124.323V124.295Z" fill="#C97700"/>
<path d="M95.7637 84.6304C90.1052 88.7969 83.9587 92.7193 79.1636 97.9086C74.8751 102.535 71.6283 108.071 66.7581 112.163C65.7915 112.979 65.9135 114.64 66.7581 115.485C67.7152 116.442 69.104 116.301 70.08 115.485C74.847 111.478 78.0656 106.091 82.2227 101.521C86.8114 96.4823 92.6857 92.7006 98.1378 88.6936C99.1606 87.9429 99.6673 86.6573 98.9823 85.4843C98.3911 84.4803 96.7959 83.8891 95.773 84.6398L95.7637 84.6304Z" fill="#FFB769"/>
<path d="M91.7332 91.703C92.4933 91.3558 93.2628 91.018 94.0323 90.6895L93.4692 90.9241C95.2428 90.1734 97.0445 89.4978 98.865 88.8784C100.029 88.4843 100.911 87.2457 100.507 85.9882C100.132 84.834 98.865 83.9331 97.6169 84.346C94.8111 85.2938 92.0523 86.4105 89.3591 87.6492C88.8524 87.8838 88.4207 88.5406 88.2799 89.0474C88.1298 89.6104 88.1955 90.3611 88.5145 90.8584C88.8336 91.3558 89.3216 91.7968 89.9127 91.9376C90.5602 92.0877 91.1139 91.9751 91.7238 91.703H91.7332Z" fill="#FFB769"/>
<path d="M97.0643 84.7902C90.8897 87.9619 84.8841 91.4527 79.0754 95.2438C78.0151 95.9382 77.574 97.3176 78.2309 98.4531C78.8502 99.5041 80.3798 99.9921 81.4402 99.2976C87.2488 95.4972 93.2545 92.0064 99.4291 88.844C100.555 88.2622 100.884 86.6857 100.274 85.6347C99.6074 84.4899 98.1904 84.2084 97.0643 84.7902Z" fill="#FFB769"/>
<path d="M134.865 110.391C135.681 116.903 136.544 123.688 134.733 130.106C133.298 135.211 129.872 139.969 124.608 141.517C121.718 142.371 122.947 146.894 125.856 146.04C132.284 144.154 136.807 138.749 138.89 132.546C141.293 125.386 140.476 117.729 139.557 110.391C139.397 109.133 138.59 108.045 137.211 108.045C136.066 108.045 134.705 109.124 134.865 110.391Z" fill="#8C5000"/>
<path d="M97.5393 144.432C105.957 144.845 114.665 144.544 122.688 141.738C126.639 140.359 130.383 138.36 133.892 136.089C137.271 133.903 140.367 131.285 142.46 127.803C143.896 125.42 140.724 123.28 138.772 124.96C136.145 127.222 134.831 130.459 133.611 133.621C132.654 136.089 136.717 137.797 137.899 135.433C138.922 133.396 139.936 131.36 140.959 129.324C142.3 126.64 138.415 124.303 136.905 126.959L133.789 132.439L137.843 134.804C138.847 132.486 139.851 130.178 140.855 127.86L136.567 126.049C135.469 128.714 134.315 131.463 132.335 133.603L136.023 136.446C137.993 132.298 140.377 128.376 143.126 124.697C143.886 123.684 143.286 122.079 142.282 121.488C141.081 120.784 139.832 121.31 139.072 122.333C136.314 126.011 133.939 129.934 131.969 134.081C131.471 135.132 131.584 136.371 132.569 137.112C133.47 137.788 134.84 137.807 135.647 136.925C138.218 134.147 139.673 130.75 141.081 127.297C142.075 124.857 137.852 123.055 136.792 125.486L133.78 132.43C133.273 133.593 133.433 134.945 134.624 135.639C135.713 136.277 137.205 135.902 137.834 134.794L140.949 129.314L136.895 126.949C135.872 128.986 134.859 131.022 133.836 133.058L138.125 134.869C139.063 132.448 140.067 130.018 142.075 128.282L138.387 125.439C136.614 128.395 133.902 130.534 131.021 132.345C127.746 134.4 124.321 136.268 120.642 137.478C113.192 139.918 105.281 140.115 97.5205 139.74C94.4989 139.59 94.5083 144.282 97.5205 144.432H97.5393Z" fill="#8C5000"/>
<path d="M98.4381 144.047C110.881 144.272 123.324 141.87 134.529 136.361C135.664 135.798 135.974 134.184 135.373 133.152C134.697 131.988 133.309 131.754 132.164 132.307C121.71 137.44 110.037 139.561 98.4381 139.345C95.4165 139.289 95.4165 143.981 98.4381 144.037V144.047Z" fill="#8C5000"/>
<path d="M134.188 109.498C135.37 113.195 136.018 116.686 136.206 120.383L140.813 119.764C139.997 115.025 139.068 110.305 138.026 105.603C137.763 104.402 136.299 103.586 135.136 103.961C133.878 104.365 133.212 105.566 133.494 106.851C134.526 111.553 135.455 116.273 136.281 121.012C136.478 122.157 137.801 122.832 138.852 122.691C139.903 122.551 140.944 121.556 140.888 120.383C140.672 116.264 139.959 112.172 138.702 108.25C138.326 107.086 137.06 106.213 135.811 106.607C134.638 106.983 133.775 108.24 134.169 109.498H134.188Z" fill="#8C5000"/>
</g>
<path d="M71.0391 127.41C74.0607 132.102 78.1333 134.607 78.1333 134.607C86.7852 140.547 109.832 141.176 109.832 141.176C117.649 140.866 131.209 134.607 131.209 134.607C139.129 131.998 137.468 121.366 137.468 121.366C136.839 110.209 129.754 101.763 129.754 101.763C122.979 94.6692 115.781 91.3848 115.781 91.3848L100.092 88.0254C100.092 88.0254 95.1369 88.5321 91.5429 90.4464C88.8403 91.8822 87.611 92.4358 80.8077 98.2445L71.0484 127.41" stroke="#231815" stroke-width="2" stroke-miterlimit="10"/>
<path d="M110.248 46.7092C110.248 46.7092 113.635 46.8124 130.996 48.1167C130.996 48.1167 131.437 42.0172 123.151 35.5048C123.151 35.5048 118.796 31.6949 112.387 30.8692C105.978 30.034 99.0903 33.8626 99.0903 33.8626C99.0903 33.8626 90.4102 37.8226 86.4971 48.9331L86.2344 49.8434C86.2344 49.8434 97.1009 45.6769 110.238 46.7185L110.248 46.7092Z" fill="#A01B36"/>
<mask id="mask4_1642_3052" style="mask-type:luminance" maskUnits="userSpaceOnUse" x="86" y="30" width="45" height="20">
<path d="M110.248 46.7092C110.248 46.7092 113.635 46.8124 130.996 48.1167C130.996 48.1167 131.437 42.0172 123.151 35.5048C123.151 35.5048 118.796 31.6949 112.387 30.8692C105.978 30.034 99.0903 33.8626 99.0903 33.8626C99.0903 33.8626 90.4102 37.8226 86.4971 48.9331L86.2344 49.8434C86.2344 49.8434 97.1009 45.6769 110.238 46.7185L110.248 46.7092Z" fill="white"/>
</mask>
<g mask="url(#mask4_1642_3052)">
<path d="M113.029 31.3023C120.254 34.7462 125.059 41.4557 128.071 48.6906C128.559 49.8636 129.629 50.6988 130.961 50.3328C132.069 50.0325 133.092 48.625 132.604 47.4426C129.141 39.1191 123.773 31.2366 115.412 27.2485C114.267 26.7042 112.879 26.9294 112.203 28.093C111.602 29.1158 111.893 30.758 113.048 31.3023H113.029Z" fill="#601326"/>
<path d="M98.3567 37.6092C99.5016 36.5769 100.843 35.7699 102.298 35.2538C102.533 35.1694 102.692 34.9348 102.626 34.672C102.561 34.4374 102.289 34.2591 102.045 34.3436C100.431 34.916 98.9573 35.7981 97.6811 36.9429C97.2307 37.3464 97.8969 38.0127 98.3473 37.6092H98.3567Z" fill="white"/>
</g>
<path d="M110.248 46.7092C110.248 46.7092 113.635 46.8124 130.996 48.1167C130.996 48.1167 131.437 42.0172 123.151 35.5048C123.151 35.5048 118.796 31.6949 112.387 30.8692C105.978 30.034 99.0903 33.8626 99.0903 33.8626C99.0903 33.8626 90.4102 37.8226 86.4971 48.9331L86.2344 49.8434C86.2344 49.8434 97.1009 45.6769 110.238 46.7185L110.248 46.7092Z" stroke="#231815" stroke-width="2" stroke-miterlimit="10"/>
<path d="M142.649 54.2153C139.731 51.8693 137.826 49.5797 130.994 48.1158C113.634 46.8114 110.246 46.7082 110.246 46.7082C97.1089 45.6666 86.2424 49.833 86.2424 49.833C86.2424 49.833 79.1294 53.9807 74.8222 59.4515C70.515 64.9223 75.9201 68.0565 75.9201 68.0565C75.9201 68.0565 79.1294 70.4588 85.1445 71.5004C91.1689 72.542 96.0955 74.4188 96.0955 74.4188C96.0955 74.4188 100.243 76.1642 100.187 79.9741C100.131 83.7839 100.187 88.2413 100.187 88.2413C100.187 88.2413 101.285 93.7965 109.514 93.7965C109.514 93.7965 115.773 94.0593 115.877 91.4506L116.139 80.5559C116.139 80.5559 116.083 77.5343 119.264 77.5812C122.445 77.6375 133.866 74.7097 136.887 72.3168C139.909 69.9145 145.23 64.9692 145.23 61.7318C145.23 58.4943 145.567 56.5707 142.649 54.2247V54.2153Z" fill="#08DAD4"/>
<mask id="mask5_1642_3052" style="mask-type:luminance" maskUnits="userSpaceOnUse" x="73" y="46" width="73" height="48">
<path d="M142.649 54.2153C139.731 51.8693 137.826 49.5797 130.994 48.1158C113.634 46.8114 110.246 46.7082 110.246 46.7082C97.1089 45.6666 86.2424 49.833 86.2424 49.833C86.2424 49.833 79.1294 53.9807 74.8222 59.4515C70.515 64.9223 75.9201 68.0565 75.9201 68.0565C75.9201 68.0565 79.1294 70.4588 85.1445 71.5004C91.1689 72.542 96.0955 74.4188 96.0955 74.4188C96.0955 74.4188 100.243 76.1642 100.187 79.9741C100.131 83.7839 100.187 88.2413 100.187 88.2413C100.187 88.2413 101.285 93.7965 109.514 93.7965C109.514 93.7965 115.773 94.0593 115.877 91.4506L116.139 80.5559C116.139 80.5559 116.083 77.5343 119.264 77.5812C122.445 77.6375 133.866 74.7097 136.887 72.3168C139.909 69.9145 145.23 64.9692 145.23 61.7318C145.23 58.4943 145.567 56.5707 142.649 54.2247V54.2153Z" fill="white"/>
</mask>
<g mask="url(#mask5_1642_3052)">
<path d="M117.429 77.3312C115.805 77.6315 114.417 78.8608 113.685 80.3059C112.831 81.9856 112.774 83.8718 112.681 85.711C112.512 89.2957 112.343 92.8709 112.174 96.4556C112.118 97.7224 113.3 98.8016 114.52 98.8016C115.843 98.8016 116.809 97.7224 116.866 96.4556C117.007 93.434 117.157 90.4124 117.297 87.3907C117.354 86.1145 117.316 84.7257 117.532 83.5152C117.579 83.2618 117.692 82.802 117.748 82.6519C117.692 82.7926 118.151 81.995 117.898 82.3328C117.898 82.3422 118.367 81.7792 118.133 82.0513C118.386 81.9199 118.405 81.8918 118.208 81.9669C118.358 81.9106 118.517 81.8824 118.677 81.8543C119.925 81.6197 120.629 80.1182 120.319 78.964C119.962 77.6597 118.686 77.0966 117.429 77.3218V77.3312Z" fill="#006A65"/>
<path d="M125.966 80.4277C131.221 78.4853 136.298 76.0736 141.103 73.174C142.154 72.5359 142.642 71.0438 141.947 69.9647C141.253 68.8856 139.864 68.4445 138.738 69.1202C134.215 71.8509 129.532 74.1218 124.728 75.9047C123.583 76.327 122.673 77.5094 123.086 78.7949C123.452 79.921 124.737 80.8876 125.976 80.4371L125.966 80.4277Z" fill="#006A65"/>
</g>
<path d="M142.649 54.2153C139.731 51.8693 137.826 49.5797 130.994 48.1158C113.634 46.8114 110.246 46.7082 110.246 46.7082C97.1089 45.6666 86.2424 49.833 86.2424 49.833C86.2424 49.833 79.1294 53.9807 74.8222 59.4515C70.515 64.9223 75.9201 68.0565 75.9201 68.0565C75.9201 68.0565 79.1294 70.4588 85.1445 71.5004C91.1689 72.542 96.0955 74.4188 96.0955 74.4188C96.0955 74.4188 100.243 76.1642 100.187 79.9741C100.131 83.7839 100.187 88.2413 100.187 88.2413C100.187 88.2413 101.285 93.7965 109.514 93.7965C109.514 93.7965 115.773 94.0593 115.877 91.4506L116.139 80.5559C116.139 80.5559 116.083 77.5343 119.264 77.5812C122.445 77.6375 133.866 74.7097 136.887 72.3168C139.909 69.9145 145.23 64.9692 145.23 61.7318C145.23 58.4943 145.567 56.5707 142.649 54.2247V54.2153Z" stroke="#231815" stroke-width="2" stroke-miterlimit="10"/>
<path d="M83.4328 65.0656C82.9636 60.3737 85.5066 60.1016 85.5066 60.1016C85.5066 60.1016 86.1729 66.9424 95.1251 70.0672C104.077 73.1921 110.102 73.4267 110.102 73.4267C110.102 73.4267 125.078 72.2162 131.328 67.4867C137.578 62.7572 135.945 61.8188 135.945 61.8188" stroke="#231815" stroke-width="2" stroke-miterlimit="10"/>
<path d="M87.4062 93.1855L98.0851 105.141C98.0851 105.141 105.592 105.507 108.407 106.858C108.407 106.858 122.464 98.525 122.887 95.7567" stroke="#231815" stroke-miterlimit="10"/>
<path d="M122.704 138.033C122.704 138.033 109.248 108.117 108.422 106.859" stroke="#231815" stroke-miterlimit="10"/>
<path d="M89.3577 138.767C89.3577 138.767 86.261 123.706 98.0941 105.145" stroke="#231815" stroke-miterlimit="10"/>
<path d="M132.546 105.922C132.546 105.922 124.908 117.361 116.059 123.348C116.059 123.348 106.374 126.876 90.4687 122.447C90.4687 122.447 85.2137 118.843 83.9375 116.657" stroke="#231815" stroke-miterlimit="10"/>
<path d="M119.828 99.1836C119.828 99.1836 128.02 104.082 129.634 109.909" stroke="#231815" stroke-miterlimit="10"/>
<path d="M90.0499 96.1348C90.0499 96.1348 86.0148 98.584 81.9141 104.027" stroke="#231815" stroke-miterlimit="10"/>
<path d="M79.4787 88.9385L84.9308 122.777C84.9308 122.777 85.1372 125.658 82.1907 125.949C78.1087 126.352 36.1064 132.517 36.1064 132.517C36.1064 132.517 33.6009 133.043 32.6625 129.392C31.7241 125.742 27.8673 100.096 27.8673 100.096C27.8673 100.096 26.5911 94.8597 32.4561 93.7431C33.92 93.4615 45.8563 91.6505 57.0794 90.0458C67.5987 88.5444 77.48 87.165 77.48 87.165C77.48 87.165 79.094 86.6207 79.4694 88.9385H79.4787Z" fill="#292828" stroke="#231815" stroke-width="2" stroke-miterlimit="10"/>
<path d="M60.2852 78.8502L60.4542 83.7485C60.4542 83.7485 60.6606 84.9966 58.8401 85.2593C57.8173 85.4095 48.2832 87.1361 48.2832 87.1361C48.2832 87.1361 46.5378 87.4739 46.3783 85.4658C46.2188 83.4576 46.1719 80.2577 46.1719 80.2577C46.1719 80.2577 46.2469 78.8408 46.9789 78.6062C47.7108 78.3716 58.5117 76.7763 58.5117 76.7763C58.5117 76.7763 60.2665 76.3728 60.2946 78.8502H60.2852Z" stroke="#231815" stroke-width="2" stroke-miterlimit="10"/>
<path d="M54.2407 90.2311L54.1094 86.2148" stroke="#231815" stroke-width="6" stroke-miterlimit="10"/>
<path d="M56.9259 123.994C64.7205 123.994 71.0392 117.676 71.0392 109.881C71.0392 102.086 64.7205 95.7676 56.9259 95.7676C49.1313 95.7676 42.8125 102.086 42.8125 109.881C42.8125 117.676 49.1313 123.994 56.9259 123.994Z" fill="white" stroke="#231815" stroke-width="3" stroke-miterlimit="10"/>
<path d="M66.2878 96.6693C67.3658 96.6693 68.2396 95.7955 68.2396 94.7175C68.2396 93.6395 67.3658 92.7656 66.2878 92.7656C65.2098 92.7656 64.3359 93.6395 64.3359 94.7175C64.3359 95.7955 65.2098 96.6693 66.2878 96.6693Z" stroke="#231815" stroke-miterlimit="10"/>
<path d="M69.5859 94.099L76.5957 93.0762L76.9335 96.1353L69.8487 96.9893L69.5859 94.099Z" fill="white" stroke="#231815" stroke-miterlimit="10"/>
<path d="M72.6529 119.911C73.4147 119.911 74.0323 119.294 74.0323 118.532C74.0323 117.77 73.4147 117.152 72.6529 117.152C71.891 117.152 71.2734 117.77 71.2734 118.532C71.2734 119.294 71.891 119.911 72.6529 119.911Z" stroke="#231815" stroke-miterlimit="10"/>
<path d="M75.2935 123.948C76.0553 123.948 76.6729 123.331 76.6729 122.569C76.6729 121.807 76.0553 121.189 75.2935 121.189C74.5317 121.189 73.9141 121.807 73.9141 122.569C73.9141 123.331 74.5317 123.948 75.2935 123.948Z" stroke="#231815" stroke-miterlimit="10"/>
<path d="M28.5156 102.852L34.2867 101.914" stroke="#231815" stroke-miterlimit="10"/>
<path d="M38.7578 116.094L41.892 115.465" stroke="#231815" stroke-miterlimit="10"/>
<path d="M31.5625 123.205L45.1785 121.197" stroke="#231815" stroke-miterlimit="10"/>
<path d="M57.1259 119.219C62.1789 119.219 66.2751 115.122 66.2751 110.069C66.2751 105.016 62.1789 100.92 57.1259 100.92C52.0728 100.92 47.9766 105.016 47.9766 110.069C47.9766 115.122 52.0728 119.219 57.1259 119.219Z" fill="#292828"/>
<mask id="mask6_1642_3052" style="mask-type:luminance" maskUnits="userSpaceOnUse" x="47" y="100" width="20" height="20">
<path d="M57.1259 119.219C62.1789 119.219 66.2751 115.122 66.2751 110.069C66.2751 105.016 62.1789 100.92 57.1259 100.92C52.0728 100.92 47.9766 105.016 47.9766 110.069C47.9766 115.122 52.0728 119.219 57.1259 119.219Z" fill="white"/>
</mask>
<g mask="url(#mask6_1642_3052)">
<path d="M51.8767 107.169C52.0925 106.897 52.3365 106.644 52.5899 106.419C52.6462 106.362 52.7119 106.316 52.7682 106.259C52.8057 106.231 52.8432 106.203 52.8808 106.175C52.8995 106.165 52.9089 106.147 52.9277 106.137C53.0684 106.034 53.2092 105.931 53.3594 105.837L52.7869 105.096C52.5805 105.349 52.374 105.621 52.2051 105.903C52.1207 106.034 52.0456 106.165 51.9705 106.306C51.8955 106.456 51.8016 106.606 51.7547 106.775C51.6703 107.057 51.811 107.385 52.1019 107.46C52.3553 107.526 52.543 107.395 52.74 107.263C53.0309 107.076 53.3124 106.879 53.6033 106.691L52.9652 106.053C52.7306 106.4 52.4867 106.738 52.2521 107.085C52.1488 107.235 52.1864 107.47 52.2896 107.611C52.4116 107.77 52.5899 107.808 52.7869 107.779C53.2186 107.714 53.6409 107.535 53.9881 107.273L53.4157 106.531C53.1998 106.803 52.9934 107.076 52.8057 107.367C52.7025 107.526 52.7306 107.742 52.8432 107.892C52.9652 108.052 53.1435 108.098 53.3406 108.061C53.6033 108.005 53.8567 107.911 54.1007 107.779L53.4157 107.498C53.3969 107.385 53.4157 107.526 53.4157 107.554C53.4157 107.592 53.4157 107.582 53.4157 107.526C53.4157 107.554 53.4063 107.582 53.3969 107.601C53.3312 107.836 53.472 108.117 53.7253 108.183C53.9787 108.249 54.2321 108.108 54.3071 107.854C54.3634 107.648 54.354 107.46 54.3259 107.254C54.279 106.935 53.8755 106.85 53.6409 106.972C53.5939 107.001 53.547 107.019 53.5001 107.047C53.4688 107.06 53.4688 107.06 53.5001 107.047C53.5001 107.047 53.4532 107.066 53.425 107.076C53.3218 107.113 53.2186 107.141 53.1154 107.16L53.6409 107.845C53.7159 107.723 53.8004 107.601 53.8848 107.489C53.9224 107.432 53.9599 107.385 53.9975 107.329C54.0162 107.31 54.0162 107.301 53.9975 107.329L54.0256 107.291C54.0256 107.291 54.0819 107.226 54.1101 107.188C54.2602 107.001 54.2977 106.766 54.1476 106.569C54.0162 106.4 53.7347 106.306 53.5376 106.447C53.4532 106.513 53.3687 106.569 53.2843 106.616C53.2467 106.635 53.2186 106.653 53.1811 106.672C53.1623 106.682 53.0121 106.747 53.1154 106.71C52.9371 106.785 52.7494 106.832 52.5617 106.86L53.0872 107.545C53.3218 107.198 53.5658 106.86 53.8004 106.513C54.0631 106.128 53.5376 105.621 53.1623 105.874C52.984 105.996 52.7963 106.118 52.618 106.231C52.5336 106.287 52.4397 106.344 52.3553 106.409C52.3084 106.438 52.2708 106.466 52.2239 106.494C52.1957 106.513 52.177 106.531 52.1488 106.541C52.0644 106.588 52.1019 106.588 52.2614 106.522L52.496 106.588H52.4773C52.5336 106.635 52.5899 106.691 52.6462 106.738V106.719C52.6556 106.794 52.6743 106.879 52.7025 106.954C52.7025 106.916 52.7025 106.925 52.7025 106.963C52.7025 106.991 52.7025 107.019 52.6743 107.047C52.6743 107.019 52.7025 106.982 52.7212 106.954C52.7494 106.888 52.7869 106.822 52.8245 106.757C52.8902 106.635 52.9652 106.503 53.0309 106.391C53.0966 106.278 53.1811 106.147 53.2655 106.034C53.303 105.978 53.3406 105.921 53.3875 105.874C53.472 105.771 53.3312 105.95 53.4157 105.837C53.4438 105.809 53.4626 105.771 53.4907 105.743C53.6409 105.565 53.6784 105.321 53.5283 105.124C53.3875 104.945 53.1248 104.88 52.9183 105.002C52.2896 105.405 51.7172 105.903 51.248 106.484C51.0978 106.672 51.0509 106.963 51.248 107.151C51.4169 107.31 51.7453 107.357 51.9142 107.151L51.8767 107.169Z" fill="white"/>
<path d="M60.186 113.494L60.0077 114.189C59.9045 114.583 60.3362 114.93 60.6927 114.714C61.115 114.47 61.5373 114.226 61.969 113.982L61.2652 113.579C61.2652 113.635 61.2558 113.616 61.2652 113.579C61.2652 113.607 61.2464 113.626 61.2464 113.654C61.2746 113.57 61.2182 113.692 61.1995 113.72C61.1807 113.738 61.1713 113.767 61.1526 113.785C61.1807 113.748 61.1713 113.757 61.1526 113.785C61.1056 113.832 61.0681 113.889 61.0212 113.935C60.8241 114.161 60.6646 114.377 60.5614 114.658C60.5051 114.836 60.5895 115.043 60.7303 115.155C60.871 115.268 61.1056 115.306 61.2558 115.193C61.7156 114.846 62.1942 114.536 62.7009 114.255L62.0159 113.729C62.0159 113.729 61.9971 113.785 61.9877 113.813C62.0065 113.776 62.0065 113.776 61.9877 113.823C61.969 113.86 61.9502 113.907 61.922 113.945C61.8939 113.992 61.8657 114.039 61.8376 114.076C61.8282 114.095 61.8094 114.114 61.8 114.133C61.8282 114.095 61.8282 114.104 61.7907 114.142C61.6499 114.301 61.5091 114.452 61.3496 114.592C61.0118 114.902 60.674 115.202 60.4018 115.578C60.1297 115.953 60.6646 116.488 61.04 116.216C62.0816 115.474 63.0106 114.592 63.7988 113.588L63.0575 113.016C62.5132 113.964 61.9314 114.855 61.1338 115.596C60.9461 115.765 60.9555 116.084 61.1338 116.263C61.3215 116.45 61.6124 116.432 61.8 116.263C62.6071 115.54 63.4047 114.808 64.1085 113.973L63.3672 113.401C63.1982 113.673 63.0106 113.907 62.7854 114.133C62.3631 114.564 63.02 115.23 63.4516 114.799C63.7237 114.517 63.9771 114.208 64.1836 113.879C64.3055 113.682 64.2399 113.41 64.0616 113.269C63.8833 113.128 63.6018 113.128 63.4422 113.307C62.7478 114.142 61.9408 114.864 61.1338 115.596L61.8 116.263C62.6446 115.465 63.2921 114.489 63.8739 113.494C63.9865 113.297 63.9396 113.025 63.7519 112.884C63.583 112.763 63.2827 112.734 63.1326 112.922C62.4006 113.87 61.5279 114.714 60.5708 115.409L61.2089 116.047C61.2089 116.047 61.2464 116 61.2182 116.028C61.237 116 61.2558 115.981 61.2746 115.953C61.3027 115.915 61.3402 115.878 61.3684 115.85C61.4435 115.765 61.5185 115.69 61.603 115.615C61.7719 115.456 61.9408 115.306 62.1097 115.155C62.4663 114.818 62.7666 114.442 62.9167 113.973C63.0481 113.57 62.5695 113.25 62.2317 113.448C61.725 113.729 61.2464 114.039 60.7866 114.386L61.4716 114.911C61.4904 114.883 61.5091 114.846 61.5279 114.818C61.5467 114.789 61.5561 114.771 61.5748 114.742C61.6124 114.686 61.5373 114.789 61.5748 114.742C61.6593 114.639 61.7437 114.545 61.8282 114.442C62.0346 114.179 62.1848 113.917 62.2036 113.579C62.2223 113.213 61.7907 113.006 61.4998 113.175C61.0775 113.419 60.6552 113.663 60.2236 113.907L60.9086 114.433L61.0869 113.738C61.1526 113.494 61.0024 113.232 60.7584 113.157C60.5145 113.082 60.2423 113.241 60.1766 113.485L60.186 113.494Z" fill="white"/>
<path d="M59.5873 110.144C59.5873 110.144 59.5873 110.229 59.5873 110.275C59.5873 110.332 59.5873 110.313 59.5873 110.275C59.5779 110.351 59.5592 110.435 59.531 110.51C59.5216 110.548 59.5122 110.576 59.5029 110.613C59.5029 110.623 59.4559 110.735 59.4841 110.679C59.5122 110.623 59.4559 110.735 59.4559 110.745C59.4372 110.782 59.4184 110.82 59.3996 110.857C59.3621 110.923 59.3246 110.979 59.287 111.045C59.287 111.045 59.212 111.148 59.2495 111.101C59.287 111.054 59.212 111.148 59.2026 111.158C59.1556 111.214 59.0993 111.27 59.0524 111.317C59.0243 111.345 58.9867 111.373 58.9586 111.402C58.9586 111.402 58.8647 111.477 58.9023 111.448C58.9398 111.42 58.8366 111.495 58.8366 111.495C58.8084 111.514 58.7709 111.542 58.7428 111.561C58.6771 111.599 58.6114 111.636 58.5363 111.674C58.4988 111.692 58.4706 111.711 58.4331 111.721C58.3017 111.786 58.5082 111.692 58.3768 111.749C58.3017 111.777 58.2266 111.805 58.1516 111.824C58.0014 111.871 57.8513 111.899 57.6918 111.927C57.5322 111.955 57.7762 111.927 57.6261 111.927C57.5885 111.927 57.551 111.927 57.5135 111.936C57.429 111.936 57.3446 111.946 57.2507 111.946C57.0067 111.946 56.7721 112.162 56.7815 112.415C56.7909 112.668 56.988 112.894 57.2507 112.884C58.0765 112.865 58.8835 112.631 59.531 112.115C60.141 111.636 60.5257 110.885 60.5445 110.116C60.5445 109.872 60.3193 109.637 60.0753 109.647C59.8313 109.656 59.6155 109.853 59.6061 110.116L59.5873 110.144Z" fill="white"/>
</g>
<path d="M57.1259 119.219C62.1789 119.219 66.2751 115.122 66.2751 110.069C66.2751 105.016 62.1789 100.92 57.1259 100.92C52.0728 100.92 47.9766 105.016 47.9766 110.069C47.9766 115.122 52.0728 119.219 57.1259 119.219Z" stroke="#231815" stroke-miterlimit="10"/>
<path d="M103.137 64.0578C104.541 64.0578 105.68 61.7638 105.68 58.9341C105.68 56.1045 104.541 53.8105 103.137 53.8105C101.732 53.8105 100.594 56.1045 100.594 58.9341C100.594 61.7638 101.732 64.0578 103.137 64.0578Z" fill="#231815" stroke="#231815" stroke-miterlimit="10"/>
<path d="M119.154 59.1804C119.424 56.3637 118.51 53.9715 117.112 53.8374C115.714 53.7033 114.361 55.878 114.091 58.6947C113.821 61.5115 114.735 63.9037 116.133 64.0378C117.531 64.1719 118.883 61.9972 119.154 59.1804Z" fill="#231815" stroke="#231815" stroke-miterlimit="10"/>
<path d="M102.172 57.0321C102.302 57.0321 102.407 56.8221 102.407 56.5629C102.407 56.3038 102.302 56.0938 102.172 56.0938C102.043 56.0938 101.938 56.3038 101.938 56.5629C101.938 56.8221 102.043 57.0321 102.172 57.0321Z" fill="white" stroke="white" stroke-miterlimit="10"/>
<path d="M116.04 56.6422C116.124 56.3968 116.092 56.1641 115.969 56.1225C115.847 56.0808 115.68 56.2459 115.596 56.4913C115.513 56.7366 115.545 56.9693 115.667 57.011C115.79 57.0527 115.957 56.8875 116.04 56.6422Z" fill="white" stroke="white" stroke-miterlimit="10"/>
<path d="M110.01 65.6553C110.118 65.6553 110.207 65.4999 110.207 65.3081C110.207 65.1164 110.118 64.9609 110.01 64.9609C109.901 64.9609 109.812 65.1164 109.812 65.3081C109.812 65.4999 109.901 65.6553 110.01 65.6553Z" fill="#231815"/>
<path d="M110.986 65.6553C111.095 65.6553 111.183 65.4999 111.183 65.3081C111.183 65.1164 111.095 64.9609 110.986 64.9609C110.877 64.9609 110.789 65.1164 110.789 65.3081C110.789 65.4999 110.877 65.6553 110.986 65.6553Z" fill="#231815"/>
</svg>
