<svg width="533" height="533" viewBox="0 0 533 533" fill="none" xmlns="http://www.w3.org/2000/svg">
<path d="M487.37 69.52H45.91V463.19H487.37V69.52Z" fill="white"/>
<path d="M305.69 214.64C302.42 203.11 291.74 205.65 291.74 205.65C291.74 205.65 294.4 195.61 278.63 193.2" stroke="black" stroke-width="5" stroke-miterlimit="10"/>
<path d="M298.69 210.21C298.69 210.21 311.76 213.08 305.39 234.64" stroke="black" stroke-width="5" stroke-miterlimit="10"/>
<path d="M302.03 218.45C302.03 218.45 309.28 234.13 299.46 246.75" stroke="black" stroke-width="5" stroke-miterlimit="10"/>
<path d="M302.39 230.17C302.39 230.17 303.33 249.4 288.14 252.88L275.98 266.87" stroke="black" stroke-width="5" stroke-miterlimit="10"/>
<path d="M287.97 200.97C287.97 200.97 279.21 191 265.29 196.07" stroke="black" stroke-width="5" stroke-miterlimit="10"/>
<path d="M277.82 199.02C277.82 199.02 267.13 189.13 251.17 204.39" stroke="black" stroke-width="5" stroke-miterlimit="10"/>
<path d="M258.87 201.43C258.87 201.43 242.34 206.52 242.76 224.51C242.76 224.67 242.76 224.82 242.77 224.98" stroke="black" stroke-width="5" stroke-miterlimit="10"/>
<path d="M244.07 222.31C244.07 222.31 240.53 242.34 249.05 244.89" stroke="black" stroke-width="5" stroke-miterlimit="10"/>
<path d="M248.3 239.39C248.3 239.39 252.86 260.24 254.37 260.64" stroke="black" stroke-width="5" stroke-miterlimit="10"/>
<g filter="url(#filter0_d_2116_2473)">
<path d="M443.28 8.08002H84.88C42.46 8.08002 8.08002 42.46 8.08002 84.88V443.28C8.08002 485.7 42.46 520.08 84.88 520.08H443.28C485.7 520.08 520.08 485.7 520.08 443.28V84.88C520.08 42.46 485.7 8.08002 443.28 8.08002ZM443.28 393.89C443.28 410.86 429.53 424.61 412.56 424.61H119.39C100.33 424.61 84.88 409.16 84.88 390.1V139.11C84.88 120.05 100.33 104.6 119.39 104.6H408.78C427.84 104.6 443.29 120.05 443.29 139.11V393.88L443.28 393.89Z" fill="url(#paint0_linear_2116_2473)"/>
</g>
<path d="M175.02 93.6001C175.02 93.6001 180.13 99.3701 179.47 105.03Z" fill="white"/>
<path d="M175.02 93.6001C175.02 93.6001 180.13 99.3701 179.47 105.03" stroke="black" stroke-width="5" stroke-miterlimit="10"/>
<path d="M192.45 228.17C192.45 228.17 189.65 174.01 172.25 134.86C173.01 135.12 173.85 135.35 175.07 135.5C175.07 135.5 169.62 135.02 168.48 131.69C167.99 130.25 169.35 125.74 169.35 125.74L168.99 127.08C162.39 127.05 157.44 122.95 156.27 122.23C154.35 121.04 148.46 113.71 147.73 110.59C147.17 108.2 147.24 104.06 149.71 101.98L150.15 102.55C149.78 99.65 150.06 95.08 155.3 93.85L155.61 98.11C156.54 75.26 132.2 57.69 132.22 57.36C132.22 57.36 130.77 50.58 138.04 51.17C151.22 52.25 165.37 94.5 165.37 94.5L165.33 96.37C166.32 74.44 150.46 50.77 150.46 50.77C150.19 45.84 153.86 46.13 156.65 47.05C158.57 47.68 160.21 48.94 161.37 50.6C165.1 55.96 173.91 70.85 175.03 93.6C175.03 93.6 193.26 94.09 190.92 106.65C188.79 118.11 184.36 123.75 184.36 123.75L185.78 127.01C186.23 128.04 186.51 129.12 186.63 130.24L186.96 133.47C187.07 134.58 187.38 135.65 187.89 136.65C190.8 142.41 215.21 199.13 221.15 228.18" fill="white"/>
<path d="M192.45 228.17C192.45 228.17 189.65 174.01 172.25 134.86C173.01 135.12 173.85 135.35 175.07 135.5C175.07 135.5 169.62 135.02 168.48 131.69C167.99 130.25 169.35 125.74 169.35 125.74L168.99 127.08C162.39 127.05 157.44 122.95 156.27 122.23C154.35 121.04 148.46 113.71 147.73 110.59C147.17 108.2 147.24 104.06 149.71 101.98L150.15 102.55C149.78 99.65 150.06 95.08 155.3 93.85L155.61 98.11C156.54 75.26 132.2 57.69 132.22 57.36C132.22 57.36 130.77 50.58 138.04 51.17C151.22 52.25 165.37 94.5 165.37 94.5L165.33 96.37C166.32 74.44 150.46 50.77 150.46 50.77C150.19 45.84 153.86 46.13 156.65 47.05C158.57 47.68 160.21 48.94 161.37 50.6C165.1 55.96 173.91 70.85 175.03 93.6C175.03 93.6 193.26 94.09 190.92 106.65C188.79 118.11 184.36 123.75 184.36 123.75L185.78 127.01C186.23 128.04 186.51 129.12 186.63 130.24L186.96 133.47C187.07 134.58 187.38 135.65 187.89 136.65C190.8 142.41 215.21 199.13 221.15 228.18" stroke="black" stroke-width="5" stroke-linejoin="round"/>
<path d="M334.17 304.81L389.81 310.69C389.81 310.69 389.84 310.69 389.86 310.69C396.56 310.37 397.53 309.57 400.18 308.02L424.66 291.37L422.02 289.68L424.19 291.07C426.08 292.28 428.59 291.81 429.91 289.98L430.16 289.63C430.26 289.5 430.44 289.47 430.57 289.58L440.32 297.63C440.32 297.63 440.35 297.65 440.37 297.66L449.42 302.28C450.22 302.69 451.09 302.95 451.99 303.04L471.44 305.03C472.22 302.9 470.74 300.61 468.47 300.46L455.37 297.39C454.43 297.17 453.54 296.79 452.74 296.25L446.54 292.14L462.01 295.95C462.17 295.99 462.33 296.01 462.5 296.02L474.37 296.78C475.59 296.86 476.75 296.24 477.36 295.19C478.26 293.65 477.19 291.71 475.41 291.64L462.75 290.17C460.65 289.93 458.59 289.35 456.67 288.48L451.15 285.97L466.87 286.9C468.25 286.94 470.77 286.69 472.02 286.11L478.84 283.33C480.8 282.65 482.01 281.64 481.83 278.85L481.58 278.21C480.26 277.18 479.2 276.97 478.04 277.45L471.23 279.74C470.08 280.05 468.62 280.13 467.44 280.01L452.56 279.05L464.13 275.86C464.98 275.71 465.81 275.44 466.58 275.05L477.26 269.67C479.9 268.34 479.27 264.1 476.31 264.01C475.83 263.99 475.34 264.08 474.88 264.27L462.87 269.26C461.48 269.73 460.33 269.96 458.67 270.15L440.76 271.83V258.48L434.21 265.01C433.42 265.5 431.64 268.12 431.11 268.88L425.84 276.43C425.07 277.54 423.98 278.4 422.72 278.89L395.05 289.79C393.63 290.23 387.62 292.88 384.01 291.68L339.2 277.22" fill="white"/>
<path d="M334.17 304.81L389.81 310.69C389.81 310.69 389.84 310.69 389.86 310.69C396.56 310.37 397.53 309.57 400.18 308.02L424.66 291.37L422.02 289.68L424.19 291.07C426.08 292.28 428.59 291.81 429.91 289.98L430.16 289.63C430.26 289.5 430.44 289.47 430.57 289.58L440.32 297.63C440.32 297.63 440.35 297.65 440.37 297.66L449.42 302.28C450.22 302.69 451.09 302.95 451.99 303.04L471.44 305.03C472.22 302.9 470.74 300.61 468.47 300.46L455.37 297.39C454.43 297.17 453.54 296.79 452.74 296.25L446.54 292.14L462.01 295.95C462.17 295.99 462.33 296.01 462.5 296.02L474.37 296.78C475.59 296.86 476.75 296.24 477.36 295.19C478.26 293.65 477.19 291.71 475.41 291.64L462.75 290.17C460.65 289.93 458.59 289.35 456.67 288.48L451.15 285.97L466.87 286.9C468.25 286.94 470.77 286.69 472.02 286.11L478.84 283.33C480.8 282.65 482.01 281.64 481.83 278.85L481.58 278.21C480.26 277.18 479.2 276.97 478.04 277.45L471.23 279.74C470.08 280.05 468.62 280.13 467.44 280.01L452.56 279.05L464.13 275.86C464.98 275.71 465.81 275.44 466.58 275.05L477.26 269.67C479.9 268.34 479.27 264.1 476.31 264.01C475.83 263.99 475.34 264.08 474.88 264.27L462.87 269.26C461.48 269.73 460.33 269.96 458.67 270.15L440.76 271.83V258.48L434.21 265.01C433.42 265.5 431.64 268.12 431.11 268.88L425.84 276.43C425.07 277.54 423.98 278.4 422.72 278.89L395.05 289.79C393.63 290.23 387.62 292.88 384.01 291.68L339.2 277.22" stroke="black" stroke-width="5" stroke-linejoin="round"/>
<path d="M310.54 316.22L318.37 424.62C252.88 447.66 186.74 424.2 186.74 424.2L193.47 302.91L184.51 248.62C190.77 207.82 222.27 221.18 222.27 221.18L223.66 225.99C226.57 229.89 227 234.33 229.98 237.67C234.87 243.17 243.76 250.54 258.32 254.28C275.12 258.59 287.14 260.32 293.09 261.32C297.1 261.99 301.45 263.3 304.75 264.09C328.86 269.91 339.27 275.45 339.27 275.45C339.27 275.45 338.95 310.88 320.53 327.09C320.53 327.09 315.69 317.7 302.04 312.09" fill="white"/>
<path d="M310.54 316.22L318.37 424.62C252.88 447.66 186.74 424.2 186.74 424.2L193.47 302.91L184.51 248.62C190.77 207.82 222.27 221.18 222.27 221.18L223.66 225.99C226.57 229.89 227 234.33 229.98 237.67C234.87 243.17 243.76 250.54 258.32 254.28C275.12 258.59 287.14 260.32 293.09 261.32C297.1 261.99 301.45 263.3 304.75 264.09C328.86 269.91 339.27 275.45 339.27 275.45C339.27 275.45 338.95 310.88 320.53 327.09C320.53 327.09 315.69 317.7 302.04 312.09" stroke="black" stroke-width="5" stroke-miterlimit="10"/>
<path d="M198.94 305.04C198.94 305.04 222.48 334.27 222.48 385.47" stroke="black" stroke-width="2" stroke-miterlimit="10" stroke-linecap="round"/>
<path d="M200.65 325.24C200.65 325.24 211.85 351.2 211.6 373.1" stroke="black" stroke-width="2" stroke-miterlimit="10" stroke-linecap="round"/>
<path d="M228.24 235.6C228.24 235.6 220.17 234.46 208.6 242.5" stroke="black" stroke-width="2" stroke-miterlimit="10" stroke-linecap="round"/>
<path d="M231.37 239.16C231.37 239.16 213.44 240.75 206.58 254.46" stroke="black" stroke-width="2" stroke-miterlimit="10" stroke-linecap="round"/>
<path d="M290.04 312.47C290.04 312.47 304.26 324.13 305.12 349.16" stroke="black" stroke-width="2" stroke-miterlimit="10" stroke-linecap="round"/>
<defs>
<filter id="filter0_d_2116_2473" x="0.0800171" y="0.0800171" width="532" height="532" filterUnits="userSpaceOnUse" color-interpolation-filters="sRGB">
<feFlood flood-opacity="0" result="BackgroundImageFix"/>
<feColorMatrix in="SourceAlpha" type="matrix" values="0 0 0 0 0 0 0 0 0 0 0 0 0 0 0 0 0 0 127 0" result="hardAlpha"/>
<feOffset dx="2" dy="2"/>
<feGaussianBlur stdDeviation="5"/>
<feColorMatrix type="matrix" values="0 0 0 0 0 0 0 0 0 0 0 0 0 0 0 0 0 0 0.75 0"/>
<feBlend mode="normal" in2="BackgroundImageFix" result="effect1_dropShadow_2116_2473"/>
<feBlend mode="normal" in="SourceGraphic" in2="effect1_dropShadow_2116_2473" result="shape"/>
</filter>
<linearGradient id="paint0_linear_2116_2473" x1="264.08" y1="520.08" x2="264.08" y2="8.08002" gradientUnits="userSpaceOnUse">
<stop stop-color="#B37DDF"/>
<stop offset="1" stop-color="#8761D2"/>
</linearGradient>
</defs>
</svg>
