<?xml version="1.0" encoding="UTF-8"?>
<svg id="_레이어_1" data-name="레이어 1" xmlns="http://www.w3.org/2000/svg" xmlns:xlink="http://www.w3.org/1999/xlink" viewBox="0 0 542.16 542.16">
  <defs>
    <style>
      .cls-1 {
        stroke-linecap: round;
        stroke-width: 2px;
      }

      .cls-1, .cls-2, .cls-3, .cls-4 {
        stroke: #000;
      }

      .cls-1, .cls-3, .cls-4 {
        stroke-miterlimit: 10;
      }

      .cls-1, .cls-4 {
        fill: none;
      }

      .cls-5, .cls-2, .cls-3 {
        fill: #fff;
      }

      .cls-2 {
        stroke-linejoin: round;
      }

      .cls-2, .cls-3, .cls-4 {
        stroke-width: 5px;
      }

      .cls-6 {
        fill: url(#_무제_그라디언트_12);
        filter: url(#drop-shadow-1);
      }
    </style>
    <linearGradient id="_무제_그라디언트_12" data-name="무제 그라디언트 12" x1="269.08" y1="525.08" x2="269.08" y2="13.08" gradientUnits="userSpaceOnUse">
      <stop offset="0" stop-color="#b37ddf"/>
      <stop offset="1" stop-color="#8761d2"/>
    </linearGradient>
    <filter id="drop-shadow-1" x="0" y="0" width="542.16" height="542.16" filterUnits="userSpaceOnUse">
      <feOffset dx="2" dy="2"/>
      <feGaussianBlur result="blur" stdDeviation="5"/>
      <feFlood flood-color="#000" flood-opacity=".75"/>
      <feComposite in2="blur" operator="in"/>
      <feComposite in="SourceGraphic"/>
    </filter>
  </defs>
  <rect class="cls-5" x="50.91" y="74.52" width="441.46" height="393.67"/>
  <g>
    <path class="cls-4" d="M310.69,219.64c-3.27-11.53-13.95-8.99-13.95-8.99,0,0,2.66-10.04-13.11-12.45"/>
    <path class="cls-4" d="M303.69,215.21s13.07,2.87,6.7,24.43"/>
    <path class="cls-4" d="M307.03,223.45s7.25,15.68-2.57,28.3"/>
    <path class="cls-4" d="M307.39,235.17s.94,19.23-14.25,22.71l-12.16,13.99"/>
    <path class="cls-4" d="M292.97,205.97s-8.76-9.97-22.68-4.9"/>
    <path class="cls-4" d="M282.82,204.02s-10.69-9.89-26.65,5.37"/>
    <path class="cls-4" d="M263.87,206.43s-16.53,5.09-16.11,23.08c0,.16,0,.31.01.47"/>
    <path class="cls-4" d="M249.07,227.31s-3.54,20.03,4.98,22.58"/>
    <path class="cls-4" d="M253.3,244.39s4.56,20.85,6.07,21.25"/>
  </g>
  <path class="cls-6" d="M448.28,13.08H89.88C47.46,13.08,13.08,47.46,13.08,89.88v358.4c0,42.42,34.38,76.8,76.8,76.8h358.4c42.42,0,76.8-34.38,76.8-76.8V89.88c0-42.42-34.38-76.8-76.8-76.8ZM448.28,398.89c0,16.97-13.75,30.72-30.72,30.72H124.39c-19.06,0-34.51-15.45-34.51-34.51v-250.99c0-19.06,15.45-34.51,34.51-34.51h289.39c19.06,0,34.51,15.45,34.51,34.51v254.77Z"/>
  <g>
    <path class="cls-3" d="M180.02,98.6s5.11,5.77,4.45,11.43"/>
    <path class="cls-2" d="M197.45,233.17s-2.8-54.16-20.2-93.31c.76.26,1.6.49,2.82.64,0,0-5.45-.48-6.59-3.81-.49-1.44.87-5.95.87-5.95l-.36,1.34c-6.6-.03-11.55-4.13-12.72-4.85-1.92-1.19-7.81-8.52-8.54-11.64-.56-2.39-.49-6.53,1.98-8.61l.44.57c-.37-2.9-.09-7.47,5.15-8.7l.31,4.26c.93-22.85-23.41-40.42-23.39-40.75,0,0-1.45-6.78,5.82-6.19,13.18,1.08,27.33,43.33,27.33,43.33l-.04,1.87c.99-21.93-14.87-45.6-14.87-45.6-.27-4.93,3.4-4.64,6.19-3.72,1.92.63,3.56,1.89,4.72,3.55,3.73,5.36,12.54,20.25,13.66,43,0,0,18.23.49,15.89,13.05-2.13,11.46-6.56,17.1-6.56,17.1l1.42,3.26c.45,1.03.73,2.11.85,3.23l.33,3.23c.11,1.11.42,2.18.93,3.18,2.91,5.76,27.32,62.48,33.26,91.53"/>
  </g>
  <path class="cls-2" d="M339.17,309.81l55.64,5.88s.03,0,.05,0c6.7-.32,7.67-1.12,10.32-2.67l24.48-16.65-2.64-1.69,2.17,1.39c1.89,1.21,4.4.74,5.72-1.09l.25-.35c.1-.13.28-.16.41-.05l9.75,8.05s.03.02.05.03l9.05,4.62c.8.41,1.67.67,2.57.76l19.45,1.99c.78-2.13-.7-4.42-2.97-4.57l-13.1-3.07c-.94-.22-1.83-.6-2.63-1.14l-6.2-4.11,15.47,3.81c.16.04.32.06.49.07l11.87.76c1.22.08,2.38-.54,2.99-1.59h0c.9-1.54-.17-3.48-1.95-3.55l-12.66-1.47c-2.1-.24-4.16-.82-6.08-1.69l-5.52-2.51,15.72.93c1.38.04,3.9-.21,5.15-.79l6.82-2.78c1.96-.68,3.17-1.69,2.99-4.48l-.25-.64c-1.32-1.03-2.38-1.24-3.54-.76l-6.81,2.29c-1.15.31-2.61.39-3.79.27l-14.88-.96,11.57-3.19c.85-.15,1.68-.42,2.45-.81l10.68-5.38c2.64-1.33,2.01-5.57-.95-5.66-.48-.02-.97.07-1.43.26l-12.01,4.99c-1.39.47-2.54.7-4.2.89l-17.91,1.68v-13.35s-6.55,6.53-6.55,6.53c-.79.49-2.57,3.11-3.1,3.87l-5.27,7.55c-.77,1.11-1.86,1.97-3.12,2.46l-27.67,10.9c-1.42.44-7.43,3.09-11.04,1.89l-44.81-14.46"/>
  <path class="cls-3" d="M315.54,321.22l7.83,108.4c-65.49,23.04-131.63-.42-131.63-.42l6.73-121.29-8.96-54.29c6.26-40.8,37.76-27.44,37.76-27.44l1.39,4.81c2.91,3.9,3.34,8.34,6.32,11.68,4.89,5.5,13.78,12.87,28.34,16.61,16.8,4.31,28.82,6.04,34.77,7.04,4.01.67,8.36,1.98,11.66,2.77,24.11,5.82,34.52,11.36,34.52,11.36,0,0-.32,35.43-18.74,51.64,0,0-4.84-9.39-18.49-15"/>
  <path class="cls-1" d="M203.94,310.04s23.54,29.23,23.54,80.43"/>
  <path class="cls-1" d="M205.65,330.24s11.2,25.96,10.95,47.86"/>
  <path class="cls-1" d="M233.24,240.6s-8.07-1.14-19.64,6.9"/>
  <path class="cls-1" d="M236.37,244.16s-17.93,1.59-24.79,15.3"/>
  <path class="cls-1" d="M295.04,317.47s14.22,11.66,15.08,36.69"/>
</svg>